<?xml version="1.0" encoding="UTF-8" standalone="no"?>
<!-- Created with Inkscape (http://www.inkscape.org/) -->

<svg
   version="1.1"
   id="svg119"
   width="34"
   height="34"
   viewBox="0 0 34 34"
   sodipodi:docname="kumandra3.svg"
   inkscape:version="1.2.1 (9c6d41e410, 2022-07-14, custom)"
   xmlns:inkscape="http://www.inkscape.org/namespaces/inkscape"
   xmlns:sodipodi="http://sodipodi.sourceforge.net/DTD/sodipodi-0.dtd"
   xmlns="http://www.w3.org/2000/svg"
   xmlns:svg="http://www.w3.org/2000/svg">
  <defs
     id="defs123" />
  <sodipodi:namedview
     id="namedview121"
     pagecolor="#ffffff"
     bordercolor="#000000"
     borderopacity="0.25"
     inkscape:showpageshadow="2"
     inkscape:pageopacity="0.0"
     inkscape:pagecheckerboard="0"
     inkscape:deskcolor="#d1d1d1"
     showgrid="false"
     inkscape:zoom="10.679392"
     inkscape:cx="24.11186"
     inkscape:cy="10.815222"
     inkscape:window-width="1886"
     inkscape:window-height="1037"
     inkscape:window-x="3851"
     inkscape:window-y="30"
     inkscape:window-maximized="1"
     inkscape:current-layer="g125" />
  <g
     inkscape:groupmode="layer"
     inkscape:label="Image"
     id="g125">
    <path
       style="fill:#000000"
       d="M -0.06701895,17.093528 V 0.09352804 h 16.99999995 17 v 16.99999996 17 h -17 -16.99999995 z M 22.17743,29.050025 c 1.509447,-2.18218 4.529868,-5.202601 6.712048,-6.712048 5.36501,-3.711058 5.36501,-6.77784 0,-10.488898 -2.18218,-1.509447 -5.202601,-4.529868 -6.712048,-6.712048 -3.711058,-5.36500996 -6.77784,-5.36500996 -10.488898,0 -1.509447,2.18218 -4.5298679,5.202601 -6.7120479,6.712048 -2.833587,1.960035 -3.9676,3.458995 -3.9676,5.244449 0,1.785454 1.134013,3.284414 3.9676,5.244449 2.18218,1.509447 5.2026009,4.529868 6.7120479,6.712048 3.711058,5.36501 6.77784,5.36501 10.488898,0 z M 10.300205,23.455799 C 6.1674301,19.093528 6.1674301,19.093528 8.9787771,19.093528 c 3.6243589,0 5.9542039,2.375715 5.9542039,6.071429 0,1.610714 -0.1125,2.866593 -0.25,2.790842 -0.1375,-0.07575 -2.109749,-2.10075 -4.382776,-4.5 z m 8.632776,1.844016 c 0,-3.902114 2.304173,-6.206287 6.206287,-6.206287 3.06343,0 3.06343,0 0.469196,2.040625 -1.426828,1.122343 -3.512515,3.20803 -4.634858,4.634858 -2.040625,2.594234 -2.040625,2.594234 -2.040625,-0.469196 z m -3.527073,-7.250092 c -0.354809,-0.574093 -0.117034,-1.680093 0.528387,-2.457779 0.921183,-1.109956 1.455653,-1.15429 2.485804,-0.206195 0.91352,0.840755 1.001692,1.587634 0.290151,2.457779 -1.245949,1.523674 -2.443895,1.598427 -3.304342,0.206195 z m -7.1484099,-4.99682 c 1.426828,-1.122343 3.5125149,-3.20803 4.6348579,-4.634858 2.040625,-2.594234 2.040625,-2.594234 2.040625,0.469196 0,1.684886 -0.707143,3.770573 -1.571429,4.634858 -0.864285,0.864286 -2.949972,1.571429 -4.6348579,1.571429 -3.06343,0 -3.06343,0 -0.469196,-2.040625 z M 20.50441,13.522099 c -0.864286,-0.864285 -1.571429,-2.949972 -1.571429,-4.634858 0,-3.06343 0,-3.06343 2.040625,-0.469196 1.122343,1.426828 3.20803,3.512515 4.634858,4.634858 2.594234,2.040625 2.594234,2.040625 -0.469196,2.040625 -1.684886,0 -3.770573,-0.707143 -4.634858,-1.571429 z"
       id="path291" />
    <path
       style="fill:#ffffff;stroke-width:0.187277"
       d="M 15.555818,32.663134 C 14.66388,32.275398 13.222074,30.850577 11.575768,28.729973 9.9515391,26.637808 7.0109831,23.689138 5.2978791,22.434765 c -2.064652,-1.511786 -2.703623,-2.092393 -3.360506,-3.053563 -1.65659905,-2.423981 -0.887276,-4.420638 2.761371,-7.166708 2.630098,-1.979481 4.897466,-4.222571 7.0660069,-6.990343 2.439299,-3.11335 3.511127,-3.932809 5.144,-3.932809 1.653344,0 2.842791,0.884101 5.022211,3.73294 1.928404,2.520723 4.550836,5.143155 7.07156,7.07156 2.848838,2.179419 3.732939,3.368867 3.732939,5.022211 0,1.581444 -0.952569,2.865604 -3.644711,4.91344 -2.633217,2.003015 -4.894972,4.246268 -7.03432,6.976783 -1.008773,1.287526 -2.138687,2.577789 -2.51092,2.867251 -1.354224,1.053096 -2.746645,1.327973 -3.989692,0.787607 z m -0.611632,-6.936225 c 0,-3.262936 -0.745586,-4.838595 -2.8362,-5.99379 -0.93962,-0.519198 -1.132844,-0.554287 -3.0591849,-0.555533 -2.500932,-0.0016 -2.589154,0.118199 -1.258848,1.709683 1.581594,1.892105 6.8080039,7.189223 6.9852049,7.079708 0.09297,-0.05746 0.169028,-1.065488 0.169028,-2.240068 z m 6.044513,0.238122 c 1.540095,-1.894074 3.052556,-3.393361 5.145263,-5.100447 0.822004,-0.670533 1.357755,-1.248216 1.357755,-1.464022 0,-0.334718 -0.139922,-0.352324 -2.294138,-0.28866 -2.558189,0.0756 -3.444827,0.365808 -4.627851,1.514749 -1.092943,1.061453 -1.574392,2.391544 -1.66013,4.586413 -0.121337,3.10618 0.09982,3.186168 2.079101,0.751967 z m -2.547794,-7.728447 c 1.065489,-1.112004 1.105133,-1.843416 0.151604,-2.796946 -0.854874,-0.854874 -1.469473,-1.010686 -2.119594,-0.537355 -0.615209,0.447912 -1.341452,1.827868 -1.341452,2.548933 0,0.807075 0.907912,1.631401 1.796824,1.631401 0.587897,0 0.833715,-0.13749 1.512618,-0.846033 z m -6.46583,-3.777353 c 2.134387,-0.9988 2.969111,-2.704751 2.969111,-6.068064 0,-1.662698 -0.03513,-1.85608 -0.337202,-1.85608 -0.1919,0 -0.814457,0.585064 -1.444765,1.357755 -1.707086,2.092707 -3.2063719,3.605168 -5.1004469,5.145263 -2.434394,1.979437 -2.373229,2.185504 0.615635,2.074074 1.8254089,-0.06805 2.2108809,-0.144379 3.2976679,-0.652948 z m 15.516642,0.33283 c 0,-0.220639 -0.59214,-0.844345 -1.545032,-1.627394 C 24.054218,11.609511 22.51002,10.061569 20.852708,8.05834 20.079376,7.123595 19.454275,6.535087 19.234742,6.535087 c -0.326759,0 -0.357748,0.1524 -0.357748,1.7594 0,2.954102 0.851191,5.033857 2.413142,5.896145 1.228116,0.677993 2.370505,0.924042 4.375634,0.942431 1.678349,0.01539 1.825947,-0.01217 1.825947,-0.341002 z"
       id="path431" />
    <path
       style="fill:#008000;stroke-width:0.187277"
       d="M -0.03793995,17.116213 V 0.16768304 H 16.91059 33.859121 V 17.116213 34.064743 H 16.91059 -0.03793995 Z M 18.410775,32.834552 c 0.937754,-0.391819 2.527771,-1.915628 3.797111,-3.639 1.460147,-1.982427 4.30324,-4.848907 6.503741,-6.55724 2.165077,-1.680831 3.556519,-3.100667 3.941408,-4.021835 0.148336,-0.355019 0.269703,-1.073753 0.269703,-1.597187 0,-1.742544 -0.78888,-2.796747 -3.924707,-5.244705 C 26.19458,9.586093 24.16705,7.547152 22.009197,4.746416 19.826886,1.913934 18.714774,1.104066 17.007514,1.104066 c -0.523434,0 -1.242169,0.121366 -1.597188,0.269703 -0.921168,0.384888 -2.341003,1.77633 -4.021835,3.941407 -1.7399499,2.241228 -4.5873159,5.053892 -6.6508779,6.569824 -2.633537,1.934646 -3.604731,3.187305 -3.79756905,4.898154 -0.200957,1.78289 0.93120105,3.376431 4.07656605,5.737867 2.302046,1.728299 4.603179,4.023519 6.5039669,6.487255 1.762641,2.284675 2.450621,2.977589 3.610886,3.636778 0.989396,0.562112 2.217651,0.633088 3.279312,0.189498 z"
       id="path640" />
    <path
       style="fill:#008000;stroke-width:0.187277"
       d="m 15.555818,32.663134 c -0.859825,-0.373776 -2.347484,-1.816175 -3.672961,-3.56122 -1.56107,-2.055211 -4.5999199,-5.152602 -6.3521119,-6.474481 -2.512941,-1.895799 -2.923954,-2.266917 -3.603742,-3.253939 -0.451662,-0.655793 -0.697488,-1.258111 -0.772716,-1.893297 -0.21009705,-1.773941 0.705299,-3.130046 3.562286,-5.277316 2.398236,-1.80248 5.4154169,-4.820484 7.3542989,-7.356305 2.052987,-2.685055 3.239811,-3.555234 4.848934,-3.555234 1.660372,0 2.803858,0.850224 5.008053,3.723668 1.940225,2.529326 4.551312,5.141193 7.074663,7.076777 2.851159,2.187035 3.732939,3.37432 3.732939,5.026266 0,1.597409 -0.875821,2.789207 -3.555234,4.837878 -2.50241,1.913337 -5.523563,4.928007 -7.35623,7.340442 -2.485883,3.272298 -4.274949,4.233241 -6.268179,3.366761 z m -0.638706,-7.242222 c -0.05992,-2.081092 -0.119158,-2.418952 -0.593478,-3.384866 -0.977746,-1.991099 -2.751388,-2.955548 -5.4261429,-2.950561 -1.825474,0.0034 -2.167969,0.148588 -1.873765,0.794294 0.436143,0.95723 7.5430069,8.269924 7.7936059,8.019325 0.09149,-0.09149 0.13639,-1.206675 0.09978,-2.478192 z m 5.742754,0.918673 c 1.648459,-2.019188 2.996,-3.396705 4.771809,-4.87796 2.737768,-2.283651 2.742382,-2.379008 0.115143,-2.379008 -2.436993,0 -3.573582,0.34013 -4.789394,1.43325 -1.293997,1.163415 -1.744433,2.311246 -1.843286,4.697197 -0.124271,2.999419 0.09905,3.143529 1.745728,1.126521 z m -2.218961,-8.103001 c 0.90986,-0.949582 1.01995,-1.523964 0.466151,-2.432069 -0.188701,-0.309426 -0.646225,-0.725841 -1.016721,-0.925366 -0.554745,-0.29875 -0.757138,-0.324724 -1.146813,-0.147176 -0.644514,0.29366 -1.435059,1.539666 -1.557891,2.455447 -0.08834,0.658632 -0.02921,0.825304 0.46981,1.324327 0.433243,0.433243 0.740104,0.57087 1.272846,0.57087 0.587897,0 0.833715,-0.13749 1.512618,-0.846033 z m -7.710442,-3.34135 c 3.064297,-0.818545 4.213723,-2.592735 4.213723,-6.504067 0,-2.148212 -0.186267,-2.33114 -1.186459,-1.165196 -2.905775,3.387321 -3.8344509,4.312299 -6.6618919,6.635375 -1.238947,1.01794 -1.016861,1.289039 1.053698,1.28624 0.904501,-0.0012 2.0659199,-0.114781 2.5809299,-0.252352 z m 16.761254,-0.08473 c 0,-0.200937 -0.83437,-1.047104 -2.046057,-2.074984 C 23.531435,11.111671 22.360678,9.90106 20.400182,7.518288 19.939815,6.958762 19.437337,6.535086 19.234109,6.535086 c -0.32596,0 -0.357115,0.153489 -0.357115,1.7594 0,2.809444 0.911539,5.130543 2.29951,5.855364 1.310713,0.684475 2.649782,0.979741 4.489266,0.989887 1.641571,0.0091 1.825947,-0.02419 1.825947,-0.329233 z"
       id="path642" />
    <path
       style="fill:#ffffff;stroke-width:0.187277"
       d="M -0.03793995,17.116213 V 0.16768304 H 16.91059 33.859121 V 17.116213 34.064743 H 16.91059 -0.03793995 Z M 18.65036,32.758986 c 0.989818,-0.526193 2.036095,-1.534217 3.601471,-3.469795 1.908962,-2.360423 3.860884,-4.336543 6.326663,-6.405099 3.798778,-3.186816 4.344699,-3.927081 4.343543,-5.88982 -0.0011,-1.84199 -0.420591,-2.421269 -3.744831,-5.171078 C 26.268546,9.417153 24.760726,7.932976 22.853564,5.598704 20.65974,2.913573 20.043606,2.268515 19.074425,1.642153 18.378305,1.192265 18.04528,1.104066 17.042686,1.104066 c -0.6997,0 -1.4562,0.121979 -1.816314,0.292864 -0.728544,0.345717 -2.504281,2.133637 -4.452142,4.482689 -1.7298189,2.086101 -3.9850549,4.267247 -6.3228409,6.115121 -2.729378,2.157403 -3.54089505,3.325723 -3.54883305,5.109165 -0.0079,1.781568 0.98288505,3.011951 5.18667505,6.440751 1.919406,1.565555 3.437926,3.150398 5.6811649,5.929294 1.577484,1.954168 2.445046,2.783539 3.412814,3.262577 1.032176,0.510919 2.530059,0.520622 3.46715,0.02246 z"
       id="path644" />
    <path
       style="fill:#ffffff;stroke-width:0.187277"
       d="M 11.588706,24.590546 C 9.8976941,22.850566 8.1855741,21.011278 7.7839931,20.50324 c -0.645185,-0.81622 -0.693415,-0.944262 -0.414478,-1.100363 0.173618,-0.09716 1.042994,-0.139623 1.931947,-0.09436 2.4826439,0.126411 3.8675679,0.975893 4.9392489,3.029627 0.310598,0.59522 0.41967,1.197738 0.478576,2.643684 0.128977,3.165965 0.35387,3.194074 -3.130581,-0.391282 z"
       id="path646" />
    <path
       style="fill:#ffffff;stroke-width:0.187277"
       d="m 6.5167401,14.792061 c 0,-0.09376 0.695265,-0.742662 1.545032,-1.442007 1.9580929,-1.611479 3.4711799,-3.124566 5.0826589,-5.082659 0.699345,-0.849768 1.348249,-1.545032 1.442008,-1.545032 0.09376,0 0.169559,0.779539 0.168444,1.732309 -0.0041,3.530567 -1.078621,5.325513 -3.666425,6.124804 -1.2951709,0.400038 -4.5717179,0.552397 -4.5717179,0.212585 z"
       id="path648" />
    <path
       style="fill:#ffffff;stroke-width:0.187277"
       d="m 23.184356,14.705244 c -2.8844,-0.794079 -3.9082,-2.293452 -4.076196,-5.969658 -0.06128,-1.340931 -0.02626,-2.013223 0.104851,-2.013223 0.108268,0 0.598522,0.484578 1.089452,1.076841 1.411899,1.703326 3.776691,4.089035 5.456946,5.505212 0.849767,0.716214 1.545031,1.382286 1.545031,1.480162 0,0.256307 -3.119062,0.196249 -4.120084,-0.07933 z"
       id="path650" />
    <path
       style="fill:#ffffff;stroke-width:0.187277"
       d=""
       id="path652" />
    <path
       style="fill:#ffffff;stroke-width:0.187277"
       d=""
       id="path654" />
    <path
       style="fill:#ffffff;stroke-width:0.187277"
       d="m 19.09166,25.403202 c 0.05957,-1.850707 0.131781,-2.237321 0.593946,-3.17988 1.01959,-2.079397 2.722148,-2.953428 5.753094,-2.953428 1.026157,0 1.86574,0.07671 1.86574,0.170471 0,0.09376 -0.695264,0.742662 -1.545031,1.442007 -1.958094,1.61148 -3.47118,3.124566 -5.082659,5.082659 -0.699345,0.849768 -1.357344,1.545032 -1.46222,1.545032 -0.122112,0 -0.166297,-0.757644 -0.12287,-2.106861 z"
       id="path656" />
    <path
       style="fill:#ffffff;stroke-width:0.187277"
       d="m 19.260229,25.450021 c -4.9e-4,-2.113784 0.246466,-2.968926 1.22965,-4.257946 0.962024,-1.261278 3.477336,-2.006642 5.854629,-1.734905 l 0.819196,0.09364 -1.474664,1.246255 c -1.535744,1.297876 -4.038677,3.818798 -5.549454,5.58934 l -0.878902,1.030021 z"
       id="path658" />
    <path
       style="fill:#999999;stroke-width:0.187277"
       d="m 15.784991,18.297052 c -0.402366,-0.478185 -0.482694,-0.726046 -0.40015,-1.234706 0.113286,-0.698095 0.863814,-1.79567 1.438032,-2.102982 0.724735,-0.387867 2.241398,0.851904 2.241398,1.832194 0,0.302377 -0.289045,0.756622 -0.818103,1.28568 -1.038491,1.038491 -1.721013,1.099449 -2.461177,0.219814 z"
       id="path660" />
    <path
       style="fill:#999999;stroke-width:0.0936383"
       d="m 6.8623331,14.894928 c -0.146705,-0.02205 -0.247515,-0.08833 -0.227919,-0.149837 0.01933,-0.06066 0.685486,-0.670354 1.480355,-1.354874 1.9184249,-1.652098 3.2775269,-3.008991 4.9435779,-4.935545 0.757133,-0.875518 1.417443,-1.570783 1.467356,-1.545032 0.05394,0.02783 0.08839,0.749423 0.08493,1.779127 -0.0063,1.884891 -0.105992,2.47134 -0.588025,3.460219 -0.585389,1.200912 -1.89083,2.15098 -3.405739,2.478614 -1.1539029,0.249558 -2.9988829,0.380923 -3.7545359,0.267328 z"
       id="path731" />
    <path
       style="fill:#999999;stroke-width:0.0936383"
       d="M 23.605728,14.732664 C 22.761655,14.579 21.671209,14.121479 21.079732,13.672827 20.182885,12.992542 19.690363,12.134963 19.377851,10.709514 19.211546,9.950952 19.083545,6.816002 19.218877,6.816002 c 0.102343,0 0.682767,0.601624 1.580927,1.63867 1.00952,1.165624 3.071355,3.245764 4.255242,4.293018 1.649049,1.458731 2.15622,1.95106 2.101345,2.03985 -0.07614,0.123204 -2.804058,0.08104 -3.550663,-0.05488 z"
       id="path733" />
    <path
       style="fill:#999999;stroke-width:0.0936383"
       d="m 19.179386,25.485191 c 0.04133,-1.786734 0.06512,-2.008034 0.276731,-2.5746 0.526765,-1.410352 1.304491,-2.32875 2.450309,-2.893513 1.010398,-0.498015 1.907891,-0.661643 3.625584,-0.661003 1.367302,5.09e-4 1.72392,0.04596 1.624375,0.207027 -0.02934,0.04747 -0.755962,0.692532 -1.614722,1.433473 -1.882435,1.624171 -3.24363,2.987985 -4.904587,4.914021 -0.684789,0.794077 -1.303085,1.46303 -1.37399,1.486563 -0.107667,0.03573 -0.121465,-0.279452 -0.0837,-1.911968 z"
       id="path735" />
    <path
       style="fill:#999999;stroke-width:0.0936383"
       d="M 13.997859,26.911924 C 13.771574,26.737451 12.527879,25.483868 11.234093,24.126185 8.6992241,21.466126 7.8692451,20.551438 7.4767841,19.9854 c -0.243117,-0.35064 -0.245258,-0.365188 -0.07238,-0.491601 0.128435,-0.09391 0.48783,-0.130267 1.287861,-0.130267 2.1130969,0 3.4442849,0.460457 4.4550929,1.541014 0.63845,0.682505 1.175838,1.577762 1.323287,2.204518 0.130778,0.555896 0.311416,3.427285 0.240048,3.81576 -0.07069,0.384788 -0.200085,0.382446 -0.712834,-0.0129 z"
       id="path737" />
    <path
       style="fill:#cccccc;stroke-width:0.0936383"
       d="M -0.03793995,17.116213 V 0.16768304 H 16.91059 33.859121 V 17.116213 34.064743 H 16.91059 -0.03793995 Z M 18.171101,32.993674 c 1.038947,-0.312677 2.102626,-1.26019 4.100847,-3.652985 1.752115,-2.098092 4.469444,-4.828554 6.624343,-6.656356 2.239832,-1.899844 3.273743,-2.959848 3.667873,-3.76044 0.308313,-0.626274 0.311755,-0.647753 0.311755,-1.946168 0,-1.265348 -0.0098,-1.33156 -0.26991,-1.827916 -0.352527,-0.672653 -1.453728,-1.75829 -3.61469,-3.563602 C 26.561966,9.556674 24.73796,7.743937 22.825267,5.458246 20.27713,2.413194 19.402436,1.584555 18.362096,1.230076 17.673079,0.99530404 15.799725,1.084734 15.178282,1.382064 c -0.608864,0.291313 -2.55665,2.23122 -4.374793,4.357097 -1.6363989,1.913372 -3.9527999,4.20395 -5.7320559,5.668155 -2.111608,1.737709 -2.628605,2.20652 -3.13469,2.842526 -0.748856,0.9411 -0.97631605,1.521765 -1.02183305,2.608559 -0.04451,1.062703 0.0879701,1.582489 0.61256305,2.403373 0.449046,0.70267 2.003573,2.22964 3.77197,3.705101 2.834654,2.365093 3.686096,3.232774 6.5326839,6.657272 1.891882,2.275969 2.639413,2.929921 3.813124,3.33578 0.586335,0.20275 1.905722,0.220378 2.52585,0.03375 z"
       id="path739" />
    <path
       style="fill:#cccccc;stroke-width:0.0936383"
       d="m 16.536037,18.788305 c -0.295288,-0.114218 -0.817683,-0.610554 -0.991191,-0.941745 -0.07286,-0.13907 -0.132468,-0.395698 -0.132468,-0.570283 0,-0.777317 1.131534,-2.313744 1.704005,-2.313744 0.792009,0 1.853092,1.01976 1.8539,1.781702 4.02e-4,0.381355 -0.140362,0.618224 -0.739069,1.243644 -0.691783,0.722651 -1.23416,0.97875 -1.695177,0.800426 z"
       id="path810" />
    <path
       style="fill:#cccccc;stroke-width:0.0936383"
       d="m 6.7578561,14.786615 c -0.02797,-0.04525 0.42252,-0.497583 1.001085,-1.005175 2.134528,-1.872682 3.1262979,-2.840713 4.7378879,-4.624481 0.907333,-1.004271 1.721624,-1.905267 1.809535,-2.002215 0.155092,-0.171034 0.161745,-0.168668 0.224075,0.07967 0.03533,0.140766 0.042,0.978557 0.01482,1.861757 -0.0391,1.270616 -0.09029,1.734279 -0.245235,2.221221 -0.241881,0.760164 -0.788766,1.621749 -1.315673,2.072762 -0.458603,0.392547 -1.473581,0.943978 -2.019792,1.097341 -1.0794399,0.30308 -4.0727139,0.515917 -4.2067029,0.299119 z"
       id="path812" />
    <path
       style="fill:#cccccc;stroke-width:0.0936383"
       d="m 23.400244,14.634297 c -0.944865,-0.205367 -2.111362,-0.805036 -2.673955,-1.374618 -1.041535,-1.054475 -1.37182,-2.112315 -1.449084,-4.64114 -0.02872,-0.939895 -0.02785,-1.708899 0.0019,-1.708899 0.02977,0 0.604319,0.607714 1.276767,1.350476 1.64867,1.821064 3.21364,3.38922 5.039648,5.04991 0.836892,0.761123 1.521622,1.402169 1.521622,1.424545 0,0.101143 -3.185631,0.0152 -3.71692,-0.100274 z"
       id="path814" />
    <path
       style="fill:#cccccc;stroke-width:0.0936383"
       d="m 19.251548,25.610152 c 0,-1.936395 0.08101,-2.38973 0.617416,-3.454881 0.586869,-1.165367 1.531314,-1.947331 2.938734,-2.433159 0.691644,-0.23875 2.742559,-0.407522 3.651854,-0.300515 l 0.700144,0.08239 -1.542888,1.354454 c -1.913207,1.679545 -3.420283,3.184855 -5.04227,5.036359 -0.688031,0.785391 -1.267172,1.427984 -1.286978,1.427984 -0.01981,0 -0.03601,-0.770686 -0.03601,-1.712635 z"
       id="path816" />
    <path
       style="fill:#cccccc;stroke-width:0.0936383"
       d="M 14.000881,26.820896 C 13.605662,26.51648 9.6220151,22.383397 8.3925681,21.002202 c -0.794801,-0.892901 -1.088894,-1.339399 -0.96429,-1.464004 0.05993,-0.05993 0.589813,-0.09638 1.349292,-0.09283 2.0866769,0.0098 3.2205729,0.407818 4.3074949,1.512127 0.446977,0.454128 0.729989,0.852858 1.004567,1.415318 0.366796,0.751362 0.386438,0.838047 0.485108,2.140825 0.1152,1.521026 0.09199,2.543614 -0.05885,2.593338 -0.05531,0.01823 -0.287063,-0.110504 -0.515011,-0.28608 z"
       id="path818" />
    <path
       style="fill:#008000;stroke-width:0.0936383"
       d="M 0,17.135807 V 0.23409572 H 16.901711 33.803423 V 17.135807 34.037518 H 16.901711 0 Z M 18.260907,33.00703 c 0.876279,-0.235746 1.915272,-1.172408 4.102279,-3.698245 1.881973,-2.173545 4.456717,-4.747773 6.762088,-6.760735 2.160976,-1.886879 3.028149,-2.78864 3.458957,-3.59692 l 0.316249,-0.593342 -0.0014,-1.366033 C 32.89778,15.661713 32.89048,15.612457 32.624854,15.122329 32.261691,14.452276 31.256253,13.456578 28.894689,11.428264 26.482082,9.3561097 24.815161,7.7015143 22.992926,5.5701394 20.139908,2.2331099 19.36287,1.5011118 18.357806,1.2036877 17.622755,0.98616729 15.859216,1.0636814 15.232127,1.341073 14.658666,1.5947418 12.822304,3.3789771 11.02269,5.4310208 9.1846774,7.5268505 6.6220017,10.044344 4.5950759,11.745313 c -3.0728706,2.57871 -3.5653688,3.246321 -3.71443195,5.035134 -0.0766212,0.919483 0.10797085,1.696344 0.58007555,2.441262 0.463356,0.731116 2.0481765,2.280661 4.3448545,4.248147 2.2738767,1.947953 3.1921023,2.885981 5.584111,5.70454 0.985469,1.161199 2.077445,2.373049 2.426614,2.692999 0.704239,0.645308 1.553065,1.109676 2.251498,1.231733 0.518809,0.09067 1.697802,0.04115 2.19311,-0.0921 z"
       id="path273" />
  </g>
</svg>
